<!--?xml version="1.0" encoding="utf-8"?-->
<!-- Generator: Adobe Illustrator 22.1.0, SVG Export Plug-In . SVG Version: 6.00 Build 0)  -->
<svg version="1.1" id="_x31_4" xmlns="http://www.w3.org/2000/svg" xmlns:xlink="http://www.w3.org/1999/xlink" x="0px" y="0px" viewBox="0 0 674 720" style="enable-background:new 0 0 674 720;" xml:space="preserve">
<style type="text/css">
	.st0{fill:#CFE6E6;}
	.st1{fill:#FFFFFF;}
	.st2{fill:#9DB3E1;}
	.st3{fill:#E6E6E6;}
	.st4{fill:#6D4E3C;}
	.st5{fill:#2388C0;}
	.st6{fill:#288DC5;}
	.st7{fill:#379CD4;}
	.st8{fill:#593A28;}
	.st9{fill:#2D92CA;}
	.st10{fill:#E1E1E1;}
	.st11{fill:#C8C8C8;}
	.st12{fill:#FFC940;}
	.st13{fill:#F7B52C;}
</style>
<g>
	<g>
		<polygon class="st0" points="338.625,720 29.169,540.255 28.345,251.491 337.8,431.236 		" style="opacity: 1;"></polygon>
		<polygon class="st1" points="485.971,210.071 634.906,259.789 635.729,548.554 338.625,720 337.8,431.236 		" style="opacity: 1;"></polygon>
		<polygon class="st2" points="485.971,205.675 176.515,25.93 325.449,75.648 634.906,255.393 		" style="opacity: 1;"></polygon>
		<polygon class="st3" points="338.625,715.604 29.169,535.859 28.345,247.095 337.8,426.839 		" style="opacity: 1;"></polygon>
		<polygon class="st2" points="337.8,426.839 28.345,247.095 176.515,25.93 485.971,205.675 		" style="opacity: 1;"></polygon>
		<polygon class="st1" points="485.971,205.675 634.906,255.393 635.729,544.157 338.625,715.604 337.8,426.839 		" style="opacity: 1;"></polygon>
		<polygon class="st4" points="543.181,464.886 475.648,503.856 476.012,632.169 543.545,593.199 		" style="opacity: 1;"></polygon>
		<g>
			<polygon class="st1" points="181.399,438.146 171.63,432.509 122.012,403.876 122.012,491.993 171.63,520.625 181.399,526.263 
				231.018,554.895 231.018,466.779 			" style="opacity: 1;"></polygon>
			<g>
				<polygon class="st5" points="129.453,416.719 129.453,487.738 172.794,512.748 172.794,441.729 				" style="opacity: 1; stroke: none; stroke-width: 7px; fill: rgb(108, 160, 85);"></polygon>
				<polygon class="st5" points="180.235,446.023 180.235,517.042 223.576,542.052 223.576,471.033 				" style="opacity: 1; stroke: none; stroke-width: 7px; fill: rgb(108, 160, 85);"></polygon>
			</g>
		</g>
		<g>
			<polygon class="st6" points="497.303,186.748 175.79,0 352.487,58.985 674,245.733 			" style="opacity: 1; stroke: none; stroke-width: 7px; fill: rgb(51, 132, 39);"></polygon>
			<polygon class="st5" points="332.374,458.542 10.861,271.795 0,262.39 321.513,449.137 			" style="opacity: 1; stroke: none; stroke-width: 7px; fill: rgb(108, 160, 85);"></polygon>
			<polygon class="st7" points="321.513,449.137 0,262.39 175.79,0 497.303,186.748 			" style="opacity: 1; stroke: none; stroke-width: 7px; fill: rgb(69, 145, 50);"></polygon>
			<polygon class="st5" points="497.303,186.748 674,245.733 663.231,267.619 497.375,212.258 332.374,458.542 321.513,449.137 			
				" style="opacity: 1; stroke: none; stroke-width: 7px; fill: rgb(108, 160, 85);"></polygon>
		</g>
		<path class="st8" d="M472.512,499.73l73.772-42.57l0.398,140.165l-73.771,42.57L472.512,499.73z M538.565,592.702l-0.345-121.583
			l-57.592,33.234l0.345,121.583L538.565,592.702" style="opacity: 1;"></path>
		<polygon class="st5" points="434.374,528.719 434.49,569.495 409.741,583.777 409.625,543.001 		" style="opacity: 1; stroke: none; stroke-width: 7px; fill: rgb(108, 160, 85);"></polygon>
		<path class="st1" d="M403.536,539.533l36.887-21.286l0.155,54.712l-36.887,21.286L403.536,539.533z M434.49,569.495l-0.116-40.776
			l-24.749,14.282l0.116,40.776L434.49,569.495" style="opacity: 1;"></path>
		<polygon class="st5" points="485.999,366.387 486.163,424.277 450.823,444.67 450.659,386.78 		" style="opacity: 1; stroke: none; stroke-width: 7px; fill: rgb(108, 160, 85);"></polygon>
		<path class="st1" d="M451.585,379.264l40.459-23.347l0.204,71.83l-40.459,23.347l-7.966,4.597l-40.459,23.347l-0.204-71.83
			l40.459-23.347L451.585,379.264z M486.163,424.277l-0.164-57.89l-35.34,20.393l0.164,57.89L486.163,424.277 M444.754,448.172
			l-0.164-57.89l-35.34,20.393l0.164,57.89L444.754,448.172" style="opacity: 1;"></path>
		<polygon class="st5" points="444.59,390.282 444.754,448.172 409.414,468.566 409.25,410.676 		" style="opacity: 1; stroke: none; stroke-width: 7px; fill: rgb(108, 160, 85);"></polygon>
		<polygon class="st5" points="566.01,320.216 566.174,378.106 530.834,398.499 530.67,340.609 		" style="opacity: 1; stroke: none; stroke-width: 7px; fill: rgb(108, 160, 85);"></polygon>
		<polygon class="st5" points="607.416,296.323 607.58,354.213 572.239,374.606 572.076,316.716 		" style="opacity: 1; stroke: none; stroke-width: 7px; fill: rgb(108, 160, 85);"></polygon>
		<path class="st1" d="M573.006,309.198l40.459-23.347l0.204,71.83l-40.459,23.347l-7.966,4.597l-40.459,23.347l-0.204-71.83
			l40.459-23.347L573.006,309.198z M607.58,354.213l-0.164-57.89l-35.34,20.393l0.164,57.89L607.58,354.213 M566.174,378.106
			l-0.164-57.89l-35.34,20.393l0.164,57.89L566.174,378.106" style="opacity: 1;"></path>
		<g>
			<polygon class="st9" points="86.117,147.445 79.56,143.637 76.698,147.907 83.538,151.88 398.211,334.655 401.072,330.384 			" style="opacity: 1; stroke: none; stroke-width: 7px; fill: rgb(109, 175, 42);"></polygon>
			<polygon class="st9" points="66.957,176.816 60.027,172.791 57.166,177.062 64.378,181.251 378.679,363.81 381.54,359.539 			" style="opacity: 1; stroke: none; stroke-width: 7px; fill: rgb(109, 175, 42);"></polygon>
			<polygon class="st9" points="339.614,422.119 342.476,417.848 28.639,235.558 20.963,231.1 18.102,235.371 26.06,239.993 			" style="opacity: 1; stroke: none; stroke-width: 7px; fill: rgb(109, 175, 42);"></polygon>
			<polygon class="st9" points="47.798,206.187 40.495,201.946 37.634,206.216 45.219,210.622 359.147,392.964 362.008,388.693 			
				" style="opacity: 1; stroke: none; stroke-width: 7px; fill: rgb(109, 175, 42);"></polygon>
			<polygon class="st9" points="105.276,118.074 99.092,114.482 96.23,118.753 102.698,122.509 417.743,305.501 420.604,301.23 			
				" style="opacity: 1; stroke: none; stroke-width: 7px; fill: rgb(109, 175, 42);"></polygon>
			<polygon class="st9" points="162.754,29.961 157.688,27.019 154.827,31.29 160.175,34.396 476.34,218.037 479.201,213.767 			" style="opacity: 1; stroke: none; stroke-width: 7px; fill: rgb(109, 175, 42);"></polygon>
			<polygon class="st9" points="143.595,59.332 138.156,56.173 135.295,60.444 141.016,63.767 456.808,247.192 459.669,242.921 			
				" style="opacity: 1; stroke: none; stroke-width: 7px; fill: rgb(109, 175, 42);"></polygon>
			<polygon class="st9" points="124.436,88.703 118.624,85.328 115.763,89.599 121.857,93.138 437.275,276.346 440.137,272.076 			
				" style="opacity: 1; stroke: none; stroke-width: 7px; fill: rgb(109, 175, 42);"></polygon>
		</g>
		<g>
			<polygon class="st10" points="480.243,650.36 470.196,644.525 470.18,638.888 480.227,644.724 			" style="opacity: 1; stroke: none; stroke-width: 7px;"></polygon>
			<polygon class="st1" points="480.227,644.724 470.18,638.888 549.951,592.856 559.998,598.692 			" style="opacity: 1;"></polygon>
			<polygon class="st11" points="559.998,598.692 560.014,604.328 480.243,650.36 480.227,644.724 			" style="opacity: 1; stroke: none; stroke-width: 7px;"></polygon>
		</g>
		<polygon class="st8" points="536.68,470.224 537.024,591.807 479.433,625.041 479.088,503.457 		" style="opacity: 1;"></polygon>
		<g>
			<polygon class="st10" points="476.252,510.956 466.204,505.12 466.188,499.484 476.236,505.32 			" style="opacity: 1; stroke: none; stroke-width: 7px;"></polygon>
			<polygon class="st1" points="476.236,505.32 466.188,499.484 545.959,453.452 556.007,459.288 			" style="opacity: 1;"></polygon>
			<polygon class="st11" points="556.007,459.288 556.022,464.924 476.252,510.956 476.236,505.32 			" style="opacity: 1; stroke: none; stroke-width: 7px;"></polygon>
		</g>
		<polygon class="st8" points="538.426,544.848 480.839,578.297 480.81,567.423 538.397,533.974 		" style="opacity: 1;"></polygon>
		<polygon class="st4" points="538.397,533.974 480.81,567.423 480.805,565.839 536.859,533.274 		" style="opacity: 1;"></polygon>
	</g>
	<g>
		<path class="st12" d="M487.111,566.793l1.431,0.831c-0.477-0.277-1.136-0.238-1.864,0.182l-1.431-0.831
			C485.975,566.555,486.634,566.516,487.111,566.793z" style="opacity: 1;"></path>
		<path class="st12" d="M484.83,574.008l-1.431-0.831c-0.47-0.273-0.762-0.854-0.764-1.68c-0.005-1.661,1.164-3.686,2.612-4.522
			l1.431,0.831c-1.448,0.836-2.617,2.861-2.612,4.522C484.068,573.154,484.359,573.735,484.83,574.008z" style="opacity: 1;"></path>
		<path class="st13" d="M486.677,567.806c1.447-0.835,2.624-0.163,2.629,1.498c0.005,1.663-1.166,3.687-2.612,4.522
			c-1.448,0.836-2.625,0.165-2.629-1.497C484.061,570.667,485.23,568.642,486.677,567.806z" style="opacity: 1; stroke: none; stroke-width: 7px;"></path>
	</g>
</g>
</svg>
